<svg xmlns="http://www.w3.org/2000/svg"  viewBox="0 0 100 100" width="200px" height="200px" baseProfile="basic"><path fill="#e85654" d="M49.996,8.875L10,84.875l40-10.857l40,10.857L49.996,8.875z M49.996,70.493L33.056,48h33.888 L49.996,70.493z"/><path fill="#1f212b" d="M10,85.875c-0.299,0-0.588-0.134-0.78-0.375c-0.249-0.31-0.29-0.738-0.104-1.091l39.996-76 c0.346-0.656,1.424-0.656,1.77,0l40.004,76c0.186,0.353,0.145,0.78-0.104,1.091c-0.248,0.312-0.655,0.444-1.042,0.34L50,75.054 L10.262,85.84C10.175,85.863,10.087,85.875,10,85.875z M49.996,11.022L11.954,83.309l37.784-10.256 c0.172-0.047,0.352-0.047,0.523,0l37.783,10.256L49.996,11.022z"/><path fill="#1f212b" d="M82.181,79.107c-0.044,0-0.088-0.006-0.131-0.018l-15.931-4.324 c-0.267-0.072-0.424-0.347-0.352-0.613c0.072-0.266,0.345-0.421,0.613-0.352l14.822,4.023L68.062,52.857 c-0.129-0.244-0.035-0.546,0.21-0.675c0.243-0.127,0.545-0.036,0.675,0.21l13.677,25.982c0.093,0.176,0.072,0.39-0.052,0.545 C82.475,79.04,82.33,79.107,82.181,79.107z"/><path fill="#1f212b" d="M64.491,45.5c-0.18,0-0.353-0.097-0.442-0.267l-0.658-1.25c-0.129-0.245-0.035-0.547,0.209-0.676 c0.246-0.128,0.547-0.036,0.676,0.209l0.658,1.25c0.129,0.245,0.035,0.547-0.209,0.676C64.649,45.481,64.57,45.5,64.491,45.5z"/><path fill="#1f212b" d="M62.714,42.125c-0.18,0-0.353-0.097-0.442-0.268l-2.5-4.75c-0.129-0.244-0.035-0.546,0.21-0.675 c0.243-0.128,0.546-0.036,0.675,0.21l2.5,4.75c0.129,0.244,0.035,0.546-0.21,0.675C62.872,42.106,62.793,42.125,62.714,42.125z"/><path fill="#1f212b" d="M35.589,45.125c-0.079,0-0.159-0.019-0.234-0.059c-0.244-0.129-0.337-0.432-0.207-0.676 l14.407-27.162c0.086-0.163,0.257-0.266,0.441-0.266h0.001c0.186,0,0.355,0.104,0.441,0.268l7.718,14.662 c0.129,0.244,0.035,0.546-0.21,0.675c-0.243,0.128-0.546,0.036-0.675-0.21l-7.277-13.824L36.03,44.859 C35.94,45.028,35.768,45.125,35.589,45.125z"/><path fill="#1f212b" d="M22.625,69.975c-0.079,0-0.158-0.019-0.232-0.058c-0.245-0.129-0.339-0.431-0.21-0.675l1.697-3.225 c0.13-0.246,0.432-0.338,0.675-0.21c0.245,0.129,0.339,0.431,0.21,0.675l-1.697,3.225C22.978,69.878,22.805,69.975,22.625,69.975z"/><path fill="#1f212b" d="M17.818,79.108c-0.079,0-0.158-0.019-0.232-0.058c-0.245-0.129-0.339-0.431-0.21-0.675l3.412-6.483 c0.129-0.246,0.433-0.337,0.675-0.21c0.245,0.129,0.339,0.431,0.21,0.675l-3.412,6.483C18.171,79.012,17.998,79.108,17.818,79.108z"/><path fill="#1f212b" d="M49.996,70.875L49.996,70.875c-0.155,0-0.302-0.072-0.396-0.194L32.659,48.8 c-0.116-0.15-0.137-0.353-0.052-0.523C32.691,48.108,32.865,48,33.056,48h33.889c0.19,0,0.364,0.108,0.448,0.278 c0.085,0.17,0.064,0.373-0.052,0.523l-16.948,21.88C50.298,70.803,50.151,70.875,49.996,70.875z M34.071,48.995l15.925,20.568 l15.932-20.568H34.071z"/></svg>